
        <svg xmlns="http://www.w3.org/2000/svg" xmlns:xlink="http://www.w3.org/1999/xlink" version="1.1" width="3193.548387096774" height="2222.177025672901" viewBox="0 0 3193.548387096774 2222.177025672901">
			
			<g transform="scale(9.67741935483871) translate(10, 10)">
				<defs id="SvgjsDefs1328"/><g id="SvgjsG1329" featureKey="symbolFeature-0" transform="matrix(2.994716746107108,0,0,2.994716746107108,80.85882505275903,-20.868498417520172)" fill="#fff"><g xmlns="http://www.w3.org/2000/svg"><path fill-rule="evenodd" clip-rule="evenodd" d="M24.808,6.982c12.998-0.254,23.552,3.092,23.682,7.34   c0,4.375-10.427,8.107-23.426,8.363c-12.998,0.258-23.552-2.959-23.68-7.336C1.255,10.976,11.809,7.242,24.808,6.982L24.808,6.982z    M24.808,8.398C14.125,8.658,5.501,11.748,5.63,15.22c0,3.605,8.753,6.307,19.434,6.049c10.682-0.256,19.306-3.219,19.177-6.82   C44.111,10.843,35.487,8.144,24.808,8.398L24.808,8.398z M24.937,17.796h1.029l-0.129-0.646c1.286,0,2.315-0.127,3.088-0.514   c0.773-0.258,1.158-0.643,1.158-1.029c0-0.129-0.129-0.258-0.385-0.514c-0.128-0.131-0.389-0.258-0.773-0.385   c-0.385-0.131-0.772-0.131-1.285-0.26c-0.387,0-0.901,0-1.803-0.127v-1.676c0.513,0,1.028,0.129,1.286,0.258   c0.387,0.127,0.645,0.256,0.645,0.516l1.803-0.129c-0.129-0.387-0.516-0.645-1.287-0.902c-0.644-0.127-1.418-0.258-2.446-0.258   v-0.254h-1.029v0.254c-1.158,0.131-2.061,0.258-2.703,0.389c-0.902,0.256-1.286,0.641-1.286,1.027c0,0.26,0.129,0.518,0.513,0.645   c0.259,0.258,0.646,0.387,1.287,0.387c0.772,0.131,1.417,0.258,2.189,0.258v1.928c-0.645-0.127-1.287-0.127-1.673-0.385   c-0.388-0.127-0.646-0.385-0.772-0.643l-1.803,0.129c0.129,0.258,0.259,0.514,0.771,0.771c0.388,0.127,0.773,0.387,1.416,0.387   c0.514,0.127,1.288,0.127,2.061,0.127L24.937,17.796L24.937,17.796z M24.808,12.646c-0.772,0.129-1.287,0.129-1.673,0.385   c-0.388,0.129-0.517,0.26-0.517,0.516c0,0.131,0.129,0.387,0.517,0.518c0.256,0,0.9,0.127,1.673,0.258V12.646L24.808,12.646z    M25.837,16.636c0.772,0,1.286-0.129,1.673-0.258c0.513-0.256,0.773-0.385,0.773-0.643s-0.261-0.387-0.516-0.516   c-0.386-0.127-1.029-0.258-1.931-0.258V16.636L25.837,16.636z M47.972,17.15c-1.801,3.992-11.327,7.209-22.908,7.465   C13.609,24.873,3.959,22.042,2.029,18.05c-0.259,0.516-0.389,1.031-0.259,1.547c0,4.631,10.553,8.105,23.422,7.849   c12.87-0.258,23.167-4.246,23.167-8.88C48.359,18.05,48.23,17.666,47.972,17.15L47.972,17.15z M48.099,21.654   c-1.928,3.992-11.322,7.208-22.906,7.466c-11.453,0.258-21.106-2.576-23.036-6.562c-0.257,0.512-0.386,1.027-0.386,1.543   c0.129,4.632,10.682,8.107,23.552,7.851c12.869-0.258,23.167-4.25,23.037-8.882C48.359,22.558,48.23,22.169,48.099,21.654   L48.099,21.654z M48.099,26.933c0.261,0.514,0.391,1.029,0.391,1.416c0.127,4.631-10.167,8.621-23.039,8.877   c-12.871,0.262-23.421-3.215-23.551-7.848c0-0.516,0.13-1.029,0.386-1.416c1.931,3.859,11.582,6.693,23.037,6.434   C36.904,34.142,46.299,30.921,48.099,26.933L48.099,26.933z M48.23,32.722c-1.803,3.992-11.326,7.209-22.78,7.336   c-11.454,0.258-21.107-2.443-23.165-6.432c-0.129,0.516-0.256,1.029-0.256,1.414c0.127,4.635,10.55,8.236,23.421,7.979   c12.872-0.258,23.295-4.246,23.166-8.877C48.616,33.626,48.489,33.108,48.23,32.722z"/></g></g><g id="SvgjsG1330" featureKey="nameFeature-0" transform="matrix(1.3251943713993006,0,0,1.3251943713993006,0.000003791411508748915,115.01309490752608)" fill="#fff"><path d="M7.96 22.32 c0 -4.64 5.72 -9.08 10.2 -9.08 c1.08 0 2.24 0.32 2.92 1.24 c0.16 0.2 0.32 0.44 0.32 0.68 s-0.16 0.64 -0.44 0.64 c-0.76 0 -0.68 -1.32 -1.96 -1.32 c-1.16 0 -2.2 0.72 -3.04 1.4 c-1.92 1.64 -3.92 4.32 -3.92 6.96 c0 2.04 1.44 2.72 3.28 3.04 c0.04 0 0.08 0.04 0.08 0.04 c0.2 0.08 0.32 0.32 0.32 0.52 c0 0.28 -0.24 0.52 -0.44 0.64 c-4 0.56 -7.12 4 -8.84 7.4 c-0.64 1.28 -1.24 2.72 -1.24 4.2 c0 1.24 0.48 2.24 1.84 2.24 c3.16 0 7.64 -4.12 9.96 -6.44 l1.8 -2.08 l2.4 -3.12 c0.08 -0.12 0.28 -0.12 0.4 -0.12 c0.32 0 0.52 0.24 0.52 0.56 c0 0.08 0.04 0.16 -0.04 0.24 l-1.68 2.24 l-2.32 2.84 l-2.44 2.52 c-0.12 0.16 -1.16 1.12 -1.48 1.4 c-0.24 0.2 -1.32 1.04 -1.52 1.24 c-2.12 1.6 -4.64 3.04 -7.36 3.04 c-3.16 0 -5.28 -1.68 -5.28 -4.92 c0 -5.44 6.32 -10.12 10.8 -12.04 c-1.64 -0.76 -2.84 -2.08 -2.84 -3.96 z M26.132 21.68 c0.8 -0.16 1.52 -0.4 2.32 -0.4 c0.92 0 1.56 0.4 2.12 1.12 c0 0.04 -0.04 0.16 -0.04 0.16 l-0.16 3.2 l0 0.56 c0.92 -0.84 1.96 -1.72 2.96 -2.48 c0.32 -0.2 1.4 -0.96 1.56 -1.04 l1.76 -1.08 s0.04 -0.04 0.08 -0.04 l0.68 0.92 c0.08 0.12 0.16 0.24 0.16 0.4 c0 0.08 -0.12 0.4 -0.24 0.4 c-0.04 0 -0.28 0.12 -0.4 0.2 c-0.08 0.04 -0.36 0.24 -0.44 0.24 l-2.88 1.96 l-3.12 2.36 c-0.08 0.04 -0.08 0.04 -0.08 0.12 l0 0.08 l0.16 1.84 c0.08 1.24 0.6 4.24 2.12 4.24 c0.64 0 1.28 -0.48 1.76 -0.84 c0.08 -0.08 0.64 -0.52 0.72 -0.64 c0.12 -0.08 0.6 -0.52 0.68 -0.6 l1.08 -1.08 l1.92 -2.2 l2.64 -3.44 l0.36 -0.36 c0.36 0 0.72 0.12 0.72 0.56 l0 0.08 l-2.36 3.12 l-2.84 3.32 l-1.24 1.28 c-1.04 1.04 -2.84 2.4 -4.28 2.4 c-2.8 0 -4.04 -2.48 -4.92 -4.72 c-1.08 1.04 -2.08 2.24 -2.88 3.56 l-1.56 2.52 l-0.04 0.04 c-0.2 -0.08 -0.84 -0.36 -0.96 -0.44 c-0.24 -0.12 -0.44 -0.24 -0.44 -0.52 c0 -0.12 0 -0.16 0.04 -0.2 l2.6 -3.12 l2.96 -2.96 l-0.4 -1.96 c0 -0.12 -0.08 -0.72 -0.12 -0.88 c0 -0.24 -0.08 -1.28 -0.08 -1.52 l0 -0.92 l0 -1 c0 -0.32 0.08 -1.92 0.08 -2.24 z M43.944 23.36 c0.36 -0.2 0.8 -0.44 1.2 -0.44 s0.76 0.36 0.76 0.76 c0 0.04 0 0.04 -0.04 0.08 c0 0.12 -0.08 0.36 -0.08 0.36 l-0.88 2.76 c0.48 -0.44 0.96 -1 1.44 -1.48 c0.96 -0.92 2.56 -2.28 4.04 -2.28 c1.32 0 1.8 1.2 1.8 2.36 c0 1.32 -0.6 2.6 -1.2 3.76 l0.04 0 l0.04 -0.04 c1.84 -0.8 3.68 -1.96 4.96 -3.52 c0.16 -0.16 0.48 -0.6 0.52 -0.64 l0 -0.04 l0.08 -0.28 l0.04 0 l0.76 0.48 l0 0.04 c-1.68 2.52 -4.4 4.12 -7.16 5.28 c-0.04 0 -0.08 0.04 -0.08 0.04 c-1.36 2.04 -3.64 4.24 -6.24 4.24 c-0.8 0 -1.4 -0.44 -1.36 -1.28 l-1.36 3.72 l-0.96 2.12 c-0.04 0.12 -0.44 0.88 -0.6 1.16 c-0.08 0.08 -0.4 0.64 -0.48 0.76 c-1.2 1.84 -2.92 3.64 -5.28 3.64 l-0.32 0 c-0.72 -0.04 -1.28 -0.48 -1.36 -1.24 l0 -0.24 c0 -1.24 0.68 -2.6 1.28 -3.68 c0.16 -0.24 0.64 -1.08 0.72 -1.2 l1.04 -1.52 l1.56 -1.92 l3.36 -3.76 l2.8 -7.44 l0 -0.04 s0.68 -0.4 0.96 -0.52 z M46.624 30.84 c0.04 0 0.4 -0.12 0.48 -0.12 c0.84 -1.36 1.44 -2.68 2 -4.08 c0.04 -0.08 0.24 -0.68 0.28 -0.8 c0.12 -0.44 0.28 -0.88 0.28 -1.32 l0 -0.16 c0 -0.04 -0.04 -0.08 -0.08 -0.08 c-0.68 0 -1.36 0.6 -1.8 1 c-0.12 0.08 -0.4 0.36 -0.44 0.4 l-1.16 1.2 l-2.2 2.56 l-1.24 3.56 l0 0.04 c0.76 -1.16 2.64 -1.8 3.88 -2.2 z M33.624 43.6 c0.96 0 2.8 -2.48 3.16 -3.24 l0.56 -1.16 l0.68 -1.72 l1.2 -3.48 l-2.4 2.56 c-0.12 0.12 -0.76 0.92 -0.96 1.16 c-0.08 0.16 -0.6 0.84 -0.68 1 c-0.8 1.12 -1.8 2.92 -1.8 4.36 l0 0.24 c0 0.12 0.08 0.28 0.24 0.28 z M46.304 31.880000000000003 l0 0.04 l-0.04 0 c-0.04 0 -0.64 0.24 -0.88 0.32 c-0.12 0.08 -0.64 0.28 -0.8 0.36 c-0.32 0.16 -1.12 0.56 -1.12 1 c0 0.24 0.32 0.32 0.52 0.32 c0.68 0 1.52 -0.96 1.84 -1.4 c0.04 -0.04 0.36 -0.4 0.44 -0.56 l0.04 -0.04 c0.04 0 0.04 -0.04 0 -0.04 z M42.744 33.12 l0 -0.04 c-0.04 0 -0.04 0.04 0 0.04 z M44.864000000000004 26.880000000000003 l0 0.04 c0.04 0 0.04 -0.04 0 -0.04 z M53.396 31.16 c0 -4.48 4.48 -9.6 9.08 -9.6 c1.16 0 2.4 0.48 2.4 1.84 c0 2.8 -4.28 4.44 -6.76 4.72 c-0.2 0.72 -0.36 1.48 -0.36 2.28 c0 1.12 0.36 2.6 1.76 2.6 c1.2 0 2.44 -0.92 3.32 -1.64 c0.16 -0.16 0.76 -0.68 0.8 -0.72 l1.52 -1.52 l2.12 -2.28 l2.4 -3.04 c0.04 -0.04 0.12 -0.12 0.2 -0.16 c0.24 0 0.72 0.08 0.72 0.44 l-0.12 0.36 l-1.56 2.04 l-2.28 2.68 l-2.08 2.12 c-0.08 0.12 -0.76 0.68 -0.96 0.88 c-1.68 1.4 -3.68 2.72 -5.96 2.72 c-2.56 0 -4.24 -1.08 -4.24 -3.72 z M57.956 26.759999999999998 l0 0.04 c0.16 -0.04 0.88 -0.2 1.04 -0.24 c0.16 -0.08 0.8 -0.24 0.92 -0.28 c0.16 -0.08 0.76 -0.32 0.92 -0.36 c0.84 -0.36 2.44 -1.28 2.44 -2.4 c0 -0.4 -0.24 -0.68 -0.68 -0.68 c-1.68 0 -3.64 1.4 -4.32 2.88 c-0.12 0.32 -0.32 0.72 -0.32 1.04 z M72.208 22.24 l0 -0.04 c0.32 0 0.56 -0.12 0.84 -0.12 c1.24 0 1.68 1.16 1.68 2.24 c0 0.08 0.04 0.28 -0.04 0.4 l-1.96 3.8 l0 0.04 l2.16 -2.08 l1.88 -1.6 c0.12 -0.08 1.04 -0.76 1.32 -0.96 c1.2 -0.84 2.76 -1.76 4.28 -1.76 c0.84 0 1.32 0.48 1.32 1.28 c0 0.76 -0.28 1.6 -0.6 2.28 l-2.24 4.6 l-0.52 1.36 c-0.16 0.44 -0.36 1.08 -0.36 1.6 c0 0.16 0 0.32 0.2 0.32 c0.68 0 1.4 -0.56 1.88 -0.96 c0.52 -0.32 2.48 -2.08 2.8 -2.56 l1.92 -2.12 l2.84 -3.52 l0.2 -0.2 c0.04 -0.04 0.16 -0.04 0.2 -0.04 c0.2 0 0.44 0.12 0.56 0.28 c0.08 0.16 0.24 0.52 0.24 0.52 l0 0.04 l-0.36 -0.04 l-2.64 3.36 l-2.96 3.32 l-1.48 1.44 c-0.08 0.08 -0.8 0.68 -1.04 0.84 c-0.96 0.76 -2.08 1.44 -3.36 1.44 c-1.72 0 -2.84 -1.28 -2.84 -2.96 c0 -0.76 0.24 -1.56 0.56 -2.24 l1.24 -2.96 c0.12 -0.28 0.16 -0.48 0.16 -0.76 c-0.16 0 -0.4 0.16 -0.56 0.28 c-0.08 0.04 -0.36 0.28 -0.4 0.28 c-0.08 0.08 -0.4 0.32 -0.48 0.4 c-0.28 0.2 -1 0.84 -1.08 0.88 l-2.52 2.44 l-3.36 3.64 c-0.4 0.44 -0.84 0.84 -1.44 0.84 c-1.2 0 -2.12 -0.88 -2.12 -2.04 c0 -1.4 0.96 -3.2 1.76 -4.4 l3.84 -5.92 z M72.68799999999999 28.6 c0.04 0 0.04 -0.04 0 -0.04 l0 0.04 z M87.66 26.28 c0 -3.16 2.08 -6.48 5.56 -6.48 c0.52 0 1 0.24 1.28 0.68 c0.04 0.12 0.4 0.68 0.44 0.84 c0 0 -0.08 0 -0.12 -0.04 c-0.44 -0.2 -0.84 -0.48 -1.32 -0.48 c-1.64 0 -2.64 2.56 -2.64 3.92 c0 0.52 0.08 1 0.24 1.48 l0.76 2.64 l0.12 0.8 c0.04 0 0.12 -0.08 0.16 -0.08 l1.84 -0.88 c1.8 -0.92 3.36 -2.12 4.6 -3.68 c0.08 -0.08 0.24 -0.08 0.32 -0.08 c0.32 0 0.56 0.2 0.56 0.52 l0 0.12 c-0.88 1.52 -3.72 3.44 -5.24 4.12 l-2.16 1.04 l-0.04 0.08 c-0.04 0.76 -0.16 1.48 -0.44 2.2 c-1.24 3.12 -4.8 5.16 -8.08 5.16 c-0.88 -0.12 -1.56 -0.6 -1.72 -1.48 c0 -2.04 1.72 -3.12 3.32 -4 c0.2 -0.12 0.88 -0.48 1 -0.52 l2 -0.88 c0.04 0 0.04 -0.08 0.04 -0.08 l0 -0.4 c0 -0.16 0 -0.44 -0.04 -0.64 l-0.32 -2.4 c-0.08 -0.48 -0.12 -0.96 -0.12 -1.48 z M84.66 34.08 c-0.68 0.36 -1.32 1.24 -1.32 2.04 c0 0.44 0.32 0.6 0.72 0.6 c1.48 0 2.6 -1.76 3.24 -2.88 c0 -0.08 0.2 -0.44 0.28 -0.56 c0.08 -0.16 0.28 -0.56 0.28 -0.8 c-0.04 0 -0.96 0.44 -1.36 0.64 c-0.28 0.12 -1.56 0.8 -1.84 0.96 z M95.91199999999999 31.16 c0 -4.48 4.48 -9.6 9.08 -9.6 c1.16 0 2.4 0.48 2.4 1.84 c0 2.8 -4.28 4.44 -6.76 4.72 c-0.2 0.72 -0.36 1.48 -0.36 2.28 c0 1.12 0.36 2.6 1.76 2.6 c1.2 0 2.44 -0.92 3.32 -1.64 c0.16 -0.16 0.76 -0.68 0.8 -0.72 l1.52 -1.52 l2.12 -2.28 l2.4 -3.04 c0.04 -0.04 0.12 -0.12 0.2 -0.16 c0.24 0 0.72 0.08 0.72 0.44 l-0.12 0.36 l-1.56 2.04 l-2.28 2.68 l-2.08 2.12 c-0.08 0.12 -0.76 0.68 -0.96 0.88 c-1.68 1.4 -3.68 2.72 -5.96 2.72 c-2.56 0 -4.24 -1.08 -4.24 -3.72 z M100.472 26.759999999999998 l0 0.04 c0.16 -0.04 0.88 -0.2 1.04 -0.24 c0.16 -0.08 0.8 -0.24 0.92 -0.28 c0.16 -0.08 0.76 -0.32 0.92 -0.36 c0.84 -0.36 2.44 -1.28 2.44 -2.4 c0 -0.4 -0.24 -0.68 -0.68 -0.68 c-1.68 0 -3.64 1.4 -4.32 2.88 c-0.12 0.32 -0.32 0.72 -0.32 1.04 z M141.09599999999998 15.079999999999998 c1.56 0 3.12 -0.28 4.24 -1.44 c0.32 -0.36 0.44 -0.88 1 -0.88 c0.32 0 0.52 0.28 0.52 0.6 l0 0.08 c-1.88 3.16 -5.28 5.04 -8.96 5.04 c-0.72 0 -1.44 -0.08 -2.16 -0.12 l-0.12 0 l-2.44 6.72 l-0.12 0.44 l-4.96 13.24 c-0.76 2.04 -3.08 4 -5.32 4 c-0.4 0 -0.68 -0.04 -1.08 -0.2 c-0.16 -0.04 -0.6 -0.2 -0.6 -0.2 l-0.04 -0.04 l0.84 -0.4 c0.4 -0.16 0.72 -0.64 0.92 -0.92 c0.08 -0.12 0.36 -0.6 0.44 -0.72 c0.08 -0.08 0.28 -0.44 0.32 -0.52 l0.84 -1.72 l1.16 -2.72 l6.12 -17.44 c-0.52 -0.04 -1 -0.08 -1.52 -0.08 c-3.28 0 -4.8 1.4 -5.88 4.44 c-0.08 0.16 -0.4 0.2 -0.56 0.2 c-0.24 0 -0.56 -0.2 -0.56 -0.48 c1.44 -4.72 4.48 -7.68 9.52 -7.68 c0.64 0 1.32 0 1.96 0.08 l4.96 0.64 c0.12 0.04 0.8 0.08 0.96 0.08 l0.52 0 z M136.34799999999998 28.04 l0.04 -0.36 c0.44 -3.32 2.2 -5.72 5.2 -7.08 c1.84 0.96 3.92 1.76 6.04 1.76 c0.44 0 0.88 -0.08 1.32 -0.08 l0 0.04 c-0.12 0.08 -0.52 0.6 -0.6 0.72 c-0.12 0.12 -0.4 0.52 -0.44 0.56 l-0.96 1.52 l-2.52 4.72 l-0.72 1.64 l-0.88 2.32 c-0.12 0.28 -0.16 0.6 -0.16 0.92 c0 0.28 0.04 0.48 0.36 0.48 c0.6 0 1.36 -0.6 1.76 -0.96 c0.16 -0.08 0.72 -0.6 0.84 -0.72 c0.24 -0.2 1.28 -1.2 1.48 -1.44 c0.36 -0.36 1.48 -1.6 1.64 -1.76 l4.12 -5.04 l0 -0.08 l0.04 -0.12 l0.16 0 c0.16 0 0.32 0 0.48 0.04 c0.08 0.08 0.24 0.24 0.24 0.36 l0 0.4 l-0.12 0 l-1.8 2.32 l-3.28 3.84 l-1.8 1.84 c-0.04 0.04 -0.48 0.44 -0.6 0.56 c-1.24 1.04 -3.08 2.64 -4.84 2.64 c-1.84 0 -2.36 -1.64 -2.36 -3.2 c0 -1.24 0.4 -2.44 0.84 -3.56 c0.12 -0.24 0.6 -1.28 0.72 -1.48 c0.12 -0.28 0.64 -1.2 0.72 -1.36 l2 -3.12 l0 -0.04 s-0.16 -0.08 -0.24 -0.16 c-0.52 -0.36 -1.16 -0.68 -1.84 -0.68 c-2 0 -3.48 2.48 -4.04 4.08 l-0.28 0.76 c-0.2 0 -0.4 -0.12 -0.52 -0.28 z M162.76 22.84 c0.24 -0.44 0.56 -1.28 1.2 -1.28 c0.28 0 0.52 0.16 0.8 0.32 c0.48 0.32 1.4 0.76 1.4 1.52 c0 0.28 -0.16 0.52 -0.28 0.72 l-1.44 3.04 l-1.48 3.68 l-0.56 1.72 l-0.4 1.44 c-0.08 0.4 -0.16 0.92 -0.16 1.4 c0 0.08 0 0.32 0.12 0.32 c0.36 0 0.76 -0.44 0.96 -0.64 l0.56 -0.56 c0.16 -0.2 0.72 -0.8 0.8 -0.88 l2.32 -2.8 l5.16 -6.96 c0.08 -0.08 0.16 -0.24 0.32 -0.24 c0.32 0 0.64 0.16 0.64 0.56 l0 0.08 l-1.12 1.64 l-4.88 6.52 l-1.88 2.16 c-0.08 0.04 -0.88 0.88 -1.16 1.16 c-0.52 0.52 -1.76 1.64 -2.56 1.64 c-1.92 0 -2.48 -1.68 -2.48 -3.32 c0 -1.48 0.4 -2.92 0.92 -4.32 c-0.04 0 -0.08 0.04 -0.08 0.04 c-0.12 0.08 -0.52 0.44 -0.6 0.52 l-1.76 1.52 c-0.12 0.08 -0.92 0.68 -1.16 0.84 c-0.76 0.56 -1.76 1.2 -2.76 1.2 c-1.4 0 -2.08 -1.12 -2.08 -2.4 c0 -1.04 0.36 -2.04 0.8 -2.96 c1.44 -3.12 4.84 -6.8 8.6 -6.8 c0.72 0 1.32 0.24 1.84 0.72 c0.08 0.04 0.36 0.4 0.4 0.4 z M154.15999999999997 31.68 c0 0.24 0.2 0.32 0.4 0.32 c0.4 0 0.8 -0.28 1.12 -0.48 c0.16 -0.12 0.72 -0.48 0.76 -0.52 l1.52 -1.2 l2.48 -2.36 l0.92 -1.96 c0.16 -0.32 0.28 -0.72 0.28 -1.08 c0 -0.28 -0.12 -0.4 -0.4 -0.4 c-0.48 0 -1.04 0.28 -1.48 0.52 c-2.2 1.2 -4.36 3.56 -5.28 5.92 c-0.16 0.36 -0.32 0.84 -0.32 1.24 z M159.55999999999997 29.759999999999998 l0 -0.04 l0 0.04 z M169.13199999999998 30.6 c0 -4.28 4.4 -9.48 8.84 -9.48 c1.04 0 2.32 0.4 2.52 1.56 c0 0.56 -0.08 1.76 -0.84 1.76 c-0.24 0 -0.44 -0.16 -0.44 -0.4 c0 -0.36 0.24 -0.64 0.24 -1 l0 -0.12 c-0.08 -0.2 -0.24 -0.28 -0.44 -0.28 c-1.96 0 -6.16 5.96 -6.16 8.44 c0 1.4 1.12 1.68 2.28 1.68 c1 -0.12 1.92 -0.84 2.68 -1.4 c0.16 -0.12 0.72 -0.6 0.84 -0.68 c0.28 -0.24 1.08 -1 1.16 -1.08 l2.08 -2.12 l2.72 -3.2 c0.2 -0.24 0.32 -0.36 0.36 -0.64 l0.04 0 c0.28 0 0.88 0.04 0.88 0.44 l0 0.4 l-0.16 0 l-1.2 1.52 l-2.16 2.48 l-2.48 2.52 c-0.08 0.08 -0.68 0.64 -0.88 0.76 c-1.56 1.32 -3.44 2.64 -5.56 2.64 c-2.48 0 -4.32 -1.16 -4.32 -3.8 z M187.384 18.6 c1.64 -2.84 3.72 -5.72 6.48 -7.6 c0.88 -0.6 1.88 -1.2 2.96 -1.2 c1.28 0 1.84 0.92 1.84 2.12 c0 2.28 -1.28 4.48 -2.68 6.16 c-0.2 0.28 -0.92 1.08 -1 1.2 l-1.4 1.4 l-1.68 1.48 l-3.52 2.8 l-0.04 0.04 l-0.8 2.72 l0 0.04 l0 -0.04 c1.48 -2.12 5.04 -5.84 7.92 -5.84 c1.12 0 1.64 0.68 1.64 1.76 c0 2.68 -2.68 5.44 -5.08 6.32 l0 0.04 l0 0.8 l0 1.32 l0 0.64 l0.2 3.12 c0.04 0.2 0.28 1.36 0.6 1.36 c0.52 0 1.08 -0.48 1.44 -0.76 c0.08 -0.12 0.48 -0.48 0.56 -0.52 c0.08 -0.08 0.64 -0.68 0.8 -0.8 c0.12 -0.12 0.52 -0.56 0.56 -0.64 l2.6 -3.12 l4.96 -6.84 l0.28 -0.44 c0 -0.08 0.04 -0.2 0.04 -0.2 l0.4 0 c0.28 0 0.48 0.24 0.48 0.52 l0 0.08 l-0.88 1.28 l-5.84 7.96 l-2.48 2.88 c0 0.04 -0.48 0.52 -0.68 0.72 c-0.84 0.8 -2.16 1.92 -3.44 1.92 c-1.44 0 -1.96 -1.68 -2.2 -2.84 c0 -0.16 -0.12 -0.88 -0.16 -1 c0 -0.12 -0.04 -0.68 -0.08 -0.8 c0 -0.28 -0.08 -1.76 -0.08 -2.08 l0 -0.52 l0 -2.32 l0 -0.24 l-1.2 2.48 c-0.84 1.76 -2.08 2.76 -4.12 2.76 c-0.04 -0.08 -0.16 -0.28 -0.2 -0.32 c-0.48 -0.72 -0.56 -1.64 -0.56 -2.52 c0 -1.44 0.28 -2.96 0.72 -4.36 l0.88 -2.76 l1.04 -2.72 c0.08 -0.12 0.56 -1.2 0.72 -1.52 c0.16 -0.28 0.84 -1.64 1 -1.92 z M189.18399999999997 22.36 l0.04 0 l2.56 -1.76 c2.2 -1.52 4.08 -3.52 5.2 -5.96 c0.28 -0.6 0.6 -1.28 0.6 -1.96 c0 -0.28 -0.08 -0.52 -0.4 -0.52 c-2.8 0 -6.2 4.88 -7 7.28 l-0.96 2.84 c-0.04 0.04 -0.04 0.08 -0.04 0.08 z M194.06399999999996 24 l-1.56 1.4 l-1.4 1.44 c-0.08 0.08 -0.56 0.6 -0.68 0.72 c-0.08 0.12 -0.48 0.6 -0.56 0.72 c-0.04 0.08 -0.28 0.44 -0.36 0.52 c-0.08 0.12 -0.24 0.44 -0.24 0.44 l0.28 -0.08 c0.04 0 0.16 -0.04 0.16 -0.04 c2.8 -0.88 3.72 -1.64 4.96 -4.24 c0.04 -0.08 0.28 -0.64 0.36 -0.8 c0.08 -0.24 0.2 -0.52 0.2 -0.76 c-0.24 0 -0.52 0.2 -0.68 0.36 c-0.12 0.08 -0.44 0.32 -0.48 0.32 z M187.50399999999996 27.8 c0.04 0 0.04 -0.04 0 -0.04 l0 0.04 z M201.67599999999996 31.16 c0 -4.48 4.48 -9.6 9.08 -9.6 c1.16 0 2.4 0.48 2.4 1.84 c0 2.8 -4.28 4.44 -6.76 4.72 c-0.2 0.72 -0.36 1.48 -0.36 2.28 c0 1.12 0.36 2.6 1.76 2.6 c1.2 0 2.44 -0.92 3.32 -1.64 c0.16 -0.16 0.76 -0.68 0.8 -0.72 l1.52 -1.52 l2.12 -2.28 l2.4 -3.04 c0.04 -0.04 0.12 -0.12 0.2 -0.16 c0.24 0 0.72 0.08 0.72 0.44 l-0.12 0.36 l-1.56 2.04 l-2.28 2.68 l-2.08 2.12 c-0.08 0.12 -0.76 0.68 -0.96 0.88 c-1.68 1.4 -3.68 2.72 -5.96 2.72 c-2.56 0 -4.24 -1.08 -4.24 -3.72 z M206.23599999999996 26.759999999999998 l0 0.04 c0.16 -0.04 0.88 -0.2 1.04 -0.24 c0.16 -0.08 0.8 -0.24 0.92 -0.28 c0.16 -0.08 0.76 -0.32 0.92 -0.36 c0.84 -0.36 2.44 -1.28 2.44 -2.4 c0 -0.4 -0.24 -0.68 -0.68 -0.68 c-1.68 0 -3.64 1.4 -4.32 2.88 c-0.12 0.32 -0.32 0.72 -0.32 1.04 z M216.48799999999997 28.04 l0.04 -0.36 c0.44 -3.32 2.2 -5.72 5.2 -7.08 c1.84 0.96 3.92 1.76 6.04 1.76 c0.44 0 0.88 -0.08 1.32 -0.08 l0 0.04 c-0.12 0.08 -0.52 0.6 -0.6 0.72 c-0.12 0.12 -0.4 0.52 -0.44 0.56 l-0.96 1.52 l-2.52 4.72 l-0.72 1.64 l-0.88 2.32 c-0.12 0.28 -0.16 0.6 -0.16 0.92 c0 0.28 0.04 0.48 0.36 0.48 c0.6 0 1.36 -0.6 1.76 -0.96 c0.16 -0.08 0.72 -0.6 0.84 -0.72 c0.24 -0.2 1.28 -1.2 1.48 -1.44 c0.36 -0.36 1.48 -1.6 1.64 -1.76 l4.12 -5.04 l0 -0.08 l0.04 -0.12 l0.16 0 c0.16 0 0.32 0 0.48 0.04 c0.08 0.08 0.24 0.24 0.24 0.36 l0 0.4 l-0.12 0 l-1.8 2.32 l-3.28 3.84 l-1.8 1.84 c-0.04 0.04 -0.48 0.44 -0.6 0.56 c-1.24 1.04 -3.08 2.64 -4.84 2.64 c-1.84 0 -2.36 -1.64 -2.36 -3.2 c0 -1.24 0.4 -2.44 0.84 -3.56 c0.12 -0.24 0.6 -1.28 0.72 -1.48 c0.12 -0.28 0.64 -1.2 0.72 -1.36 l2 -3.12 l0 -0.04 s-0.16 -0.08 -0.24 -0.16 c-0.52 -0.36 -1.16 -0.68 -1.84 -0.68 c-2 0 -3.48 2.48 -4.04 4.08 l-0.28 0.76 c-0.2 0 -0.4 -0.12 -0.52 -0.28 z"/></g><g id="SvgjsG1331" featureKey="sloganFeature-0" transform="matrix(1.0222527145476594,0,0,1.0222527145476594,29.55061795976789,188.99022581979875)" fill="#fff"><path d="M11.133 20 l-1.1035 -3.0957 l-6.084 0 l-1.0938 3.0957 l-2.4121 0 l5.127 -13.926 l2.8418 0 l5.127 13.926 l-2.4023 0 z M4.6582 14.9023 l4.668 0 l-2.334 -6.582 z M23.03176640625 17.9102 l4.5996 0 l0 2.0898 l-6.9336 0 l0 -13.926 l2.334 0 l0 11.836 z M37.1670203125 17.9102 l4.5996 0 l0 2.0898 l-6.9336 0 l0 -13.926 l2.334 0 l0 11.836 z M58.884778125 20 l0 -13.926 l2.334 0 l0 13.926 l-2.334 0 z M79.35812890625 6.074 l2.334 0 l0 13.926 l-2.6172 0 l-6.8359 -10.625 l0 10.625 l-2.3145 0 l0 -13.926 l2.5879 0 l6.8457 10.557 l0 -10.557 z M106.37837734375 20.18555 c-4.0039 0 -7.0313 -2.7441 -7.0313 -7.1582 c0 -4.4043 3.0273 -7.1484 7.0313 -7.1484 c3.9941 0 7.0215 2.7441 7.0215 7.1484 c0 4.4141 -3.0273 7.1582 -7.0215 7.1582 z M106.37837734375 18.0176 c2.6367 0 4.6973 -1.8262 4.6973 -4.9902 c0 -3.1348 -2.0605 -4.9707 -4.6973 -4.9707 s-4.6973 1.8359 -4.6973 4.9707 c0 3.1641 2.0605 4.9902 4.6973 4.9902 z M130.58225 6.074 l2.334 0 l0 13.926 l-2.6172 0 l-6.8359 -10.625 l0 10.625 l-2.3145 0 l0 -13.926 l2.5879 0 l6.8457 10.557 l0 -10.557 z M149.39499453125 8.154 l-5.4102 0 l0 3.8574 l4.7852 0 l0 2.0605 l-4.7852 0 l0 3.8379 l5.4102 0 l0 2.0898 l-7.7734 0 l0 -13.926 l7.7734 0 l0 2.0801 z M172.75342109375 6.074 c2.6172 0 4.2871 1.9629 4.2871 4.3848 c0 2.4609 -1.6699 4.3457 -4.2871 4.3457 l-3.2031 0 l0 5.1953 l-2.334 0 l0 -13.926 l5.5371 0 z M172.38232109375 12.8125 c1.5625 0 2.3828 -0.95703 2.3828 -2.3828 c0 -1.377 -0.82031 -2.3828 -2.3828 -2.3828 l-2.832 0 l0 4.7656 l2.832 0 z M186.859403125 17.9102 l4.5996 0 l0 2.0898 l-6.9336 0 l0 -13.926 l2.334 0 l0 11.836 z M207.80145703125 20 l-1.1035 -3.0957 l-6.084 0 l-1.0938 3.0957 l-2.4121 0 l5.127 -13.926 l2.8418 0 l5.127 13.926 l-2.4023 0 z M201.32665703125 14.9023 l4.668 0 l-2.334 -6.582 z M223.4306234375 20.18555 c-4.0039 0 -7.0313 -2.7344 -7.0313 -7.1582 c0 -4.4043 3.0273 -7.1484 7.0313 -7.1484 c2.9297 0 5.332 1.4844 6.377 3.9746 l-2.1777 0.83008 c-0.72266 -1.6699 -2.3047 -2.627 -4.1992 -2.627 c-2.6367 0 -4.6973 1.8359 -4.6973 4.9707 c0 3.1543 2.0605 4.9805 4.6973 4.9805 c1.8945 0 3.4766 -0.94727 4.1992 -2.6172 l2.1777 0.83008 c-1.0449 2.4902 -3.4473 3.9648 -6.377 3.9648 z M244.99753359375 8.154 l-5.4102 0 l0 3.8574 l4.7852 0 l0 2.0605 l-4.7852 0 l0 3.8379 l5.4102 0 l0 2.0898 l-7.7734 0 l0 -13.926 l7.7734 0 l0 2.0801 z"/></g>
			</g>
		</svg>
	